<svg width="1001" height="424" viewBox="0 0 1001 424" fill="none" xmlns="http://www.w3.org/2000/svg">
<g clip-path="url(#clip0_1_728)">
<path fill-rule="evenodd" clip-rule="evenodd" d="M500.684 2.61166C478.908 2.60866 457.133 9.48359 438.796 23.2367C401.39 51.2922 349.956 51.2922 312.549 23.2367C275.884 -4.26334 225.469 -4.26334 188.804 23.2367C151.397 51.2922 99.9633 51.2922 62.557 23.2367C44.2241 9.48658 22.4545 2.61166 0.683777 2.61166V0.528326C22.8933 0.528326 45.1039 7.54228 63.807 21.57C100.473 49.07 150.888 49.07 187.554 21.57C224.96 -6.48557 276.393 -6.48557 313.799 21.57C350.465 49.07 400.881 49.07 437.546 21.57C456.254 7.53922 478.469 0.525263 500.684 0.528326C522.893 0.528326 545.104 7.54228 563.807 21.57C600.472 49.07 650.888 49.07 687.554 21.57C724.96 -6.48557 776.393 -6.48557 813.799 21.57C850.465 49.07 900.881 49.07 937.546 21.57C956.254 7.53922 978.469 0.525263 1000.68 0.528326V2.61166C978.908 2.60866 957.133 9.48359 938.796 23.2367C901.39 51.2922 849.956 51.2922 812.549 23.2367C775.884 -4.26334 725.469 -4.26334 688.804 23.2367C651.397 51.2922 599.963 51.2922 562.557 23.2367C544.224 9.48658 522.455 2.61166 500.684 2.61166Z" fill="white" fill-opacity="0.4"/>
<path fill-rule="evenodd" clip-rule="evenodd" d="M500.684 19.2783C478.908 19.2753 457.133 26.1503 438.796 39.9033C401.39 67.9588 349.956 67.9588 312.549 39.9033C275.884 12.4033 225.469 12.4033 188.804 39.9033C151.397 67.9588 99.9633 67.9588 62.557 39.9033C44.2241 26.1532 22.4545 19.2783 0.683777 19.2783V17.195C22.8933 17.195 45.1039 24.2089 63.807 38.2366C100.473 65.7366 150.888 65.7366 187.554 38.2366C224.96 10.1811 276.393 10.1811 313.799 38.2366C350.465 65.7366 400.881 65.7366 437.546 38.2366C456.254 24.2059 478.469 17.1919 500.684 17.195C522.893 17.195 545.104 24.2089 563.807 38.2366C600.472 65.7366 650.888 65.7366 687.554 38.2366C724.96 10.1811 776.393 10.1811 813.799 38.2366C850.465 65.7366 900.881 65.7366 937.546 38.2366C956.254 24.2059 978.469 17.1919 1000.68 17.195V19.2783C978.908 19.2753 957.133 26.1503 938.796 39.9033C901.39 67.9588 849.956 67.9588 812.549 39.9033C775.884 12.4033 725.469 12.4033 688.804 39.9033C651.397 67.9588 599.963 67.9588 562.557 39.9033C544.224 26.1532 522.455 19.2783 500.684 19.2783Z" fill="white" fill-opacity="0.4"/>
<path fill-rule="evenodd" clip-rule="evenodd" d="M500.684 63.0283C478.908 63.0253 457.133 69.9003 438.796 83.6533C401.39 111.708 349.956 111.708 312.549 83.6533C275.884 56.1533 225.469 56.1533 188.804 83.6533C151.397 111.708 99.9633 111.708 62.557 83.6533C44.2241 69.9032 22.4545 63.0283 0.683777 63.0283V60.9449C22.8933 60.9449 45.1039 67.9589 63.807 81.9866C100.473 109.487 150.888 109.487 187.554 81.9866C224.96 53.9311 276.393 53.9311 313.799 81.9866C350.465 109.487 400.881 109.487 437.546 81.9866C456.254 67.9559 478.469 60.9419 500.684 60.9449C522.893 60.9449 545.104 67.9589 563.807 81.9866C600.472 109.487 650.888 109.487 687.554 81.9866C724.96 53.9311 776.393 53.9311 813.799 81.9866C850.465 109.487 900.881 109.487 937.546 81.9866C956.254 67.9559 978.469 60.9419 1000.68 60.9449V63.0283C978.908 63.0253 957.133 69.9003 938.796 83.6533C901.39 111.708 849.956 111.708 812.549 83.6533C775.884 56.1533 725.469 56.1533 688.804 83.6533C651.397 111.708 599.963 111.708 562.557 83.6533C544.224 69.9032 522.455 63.0283 500.684 63.0283Z" fill="white" fill-opacity="0.4"/>
<path fill-rule="evenodd" clip-rule="evenodd" d="M500.684 79.695C478.908 79.692 457.133 86.567 438.796 100.32C401.39 128.375 349.956 128.375 312.549 100.32C275.884 72.82 225.469 72.82 188.804 100.32C151.397 128.375 99.9633 128.375 62.557 100.32C44.2241 86.5699 22.4545 79.695 0.683777 79.695V77.6117C22.8933 77.6117 45.1039 84.6256 63.807 98.6534C100.473 126.153 150.888 126.153 187.554 98.6534C224.96 70.5978 276.393 70.5978 313.799 98.6534C350.465 126.153 400.881 126.153 437.546 98.6534C456.254 84.6226 478.469 77.6087 500.684 77.6117C522.893 77.6117 545.104 84.6256 563.807 98.6534C600.472 126.153 650.888 126.153 687.554 98.6534C724.96 70.5978 776.393 70.5978 813.799 98.6534C850.465 126.153 900.881 126.153 937.546 98.6534C956.254 84.6226 978.469 77.6087 1000.68 77.6117V79.695C978.908 79.692 957.133 86.567 938.796 100.32C901.39 128.375 849.956 128.375 812.549 100.32C775.884 72.82 725.469 72.82 688.804 100.32C651.397 128.375 599.963 128.375 562.557 100.32C544.224 86.5699 522.455 79.695 500.684 79.695Z" fill="white" fill-opacity="0.4"/>
<path fill-rule="evenodd" clip-rule="evenodd" d="M500.684 123.445C478.908 123.442 457.133 130.317 438.796 144.07C401.39 172.125 349.956 172.125 312.549 144.07C275.884 116.57 225.469 116.57 188.804 144.07C151.397 172.125 99.9633 172.125 62.557 144.07C44.2241 130.32 22.4545 123.445 0.683777 123.445V121.362C22.8933 121.362 45.1039 128.375 63.807 142.403C100.473 169.903 150.888 169.903 187.554 142.403C224.96 114.348 276.393 114.348 313.799 142.403C350.465 169.903 400.881 169.903 437.546 142.403C456.254 128.372 478.469 121.359 500.684 121.362C522.893 121.362 545.104 128.375 563.807 142.403C600.472 169.903 650.888 169.903 687.554 142.403C724.96 114.348 776.393 114.348 813.799 142.403C850.465 169.903 900.881 169.903 937.546 142.403C956.254 128.372 978.469 121.359 1000.68 121.362V123.445C978.908 123.442 957.133 130.317 938.796 144.07C901.39 172.125 849.956 172.125 812.549 144.07C775.884 116.57 725.469 116.57 688.804 144.07C651.397 172.125 599.963 172.125 562.557 144.07C544.224 130.32 522.455 123.445 500.684 123.445Z" fill="white" fill-opacity="0.4"/>
<path fill-rule="evenodd" clip-rule="evenodd" d="M500.684 140.112C478.908 140.109 457.133 146.984 438.796 160.737C401.39 188.792 349.956 188.792 312.549 160.737C275.884 133.237 225.469 133.237 188.804 160.737C151.397 188.792 99.9633 188.792 62.557 160.737C44.2241 146.987 22.4545 140.112 0.683777 140.112V138.028C22.8933 138.028 45.1039 145.042 63.807 159.07C100.473 186.57 150.888 186.57 187.554 159.07C224.96 131.015 276.393 131.015 313.799 159.07C350.465 186.57 400.881 186.57 437.546 159.07C456.254 145.039 478.469 138.025 500.684 138.028C522.893 138.028 545.104 145.042 563.807 159.07C600.472 186.57 650.888 186.57 687.554 159.07C724.96 131.015 776.393 131.015 813.799 159.07C850.465 186.57 900.881 186.57 937.546 159.07C956.254 145.039 978.469 138.025 1000.68 138.028V140.112C978.908 140.109 957.133 146.984 938.796 160.737C901.39 188.792 849.956 188.792 812.549 160.737C775.884 133.237 725.469 133.237 688.804 160.737C651.397 188.792 599.963 188.792 562.557 160.737C544.224 146.987 522.455 140.112 500.684 140.112Z" fill="white" fill-opacity="0.4"/>
<path fill-rule="evenodd" clip-rule="evenodd" d="M500.684 183.862C478.908 183.859 457.133 190.734 438.796 204.487C401.39 232.542 349.956 232.542 312.549 204.487C275.884 176.987 225.469 176.987 188.804 204.487C151.397 232.542 99.9633 232.542 62.557 204.487C44.2241 190.737 22.4545 183.862 0.683777 183.862V181.778C22.8933 181.778 45.1039 188.792 63.807 202.82C100.473 230.32 150.888 230.32 187.554 202.82C224.96 174.765 276.393 174.765 313.799 202.82C350.465 230.32 400.881 230.32 437.546 202.82C456.254 188.789 478.469 181.775 500.684 181.778C522.893 181.778 545.104 188.792 563.807 202.82C600.472 230.32 650.888 230.32 687.554 202.82C724.96 174.765 776.393 174.765 813.799 202.82C850.465 230.32 900.881 230.32 937.546 202.82C956.254 188.789 978.469 181.775 1000.68 181.778V183.862C978.908 183.859 957.133 190.734 938.796 204.487C901.39 232.542 849.956 232.542 812.549 204.487C775.884 176.987 725.469 176.987 688.804 204.487C651.397 232.542 599.963 232.542 562.557 204.487C544.224 190.737 522.455 183.862 500.684 183.862Z" fill="white" fill-opacity="0.4"/>
<path fill-rule="evenodd" clip-rule="evenodd" d="M500.684 200.528C478.908 200.525 457.133 207.4 438.796 221.153C401.39 249.209 349.956 249.209 312.549 221.153C275.884 193.653 225.469 193.653 188.804 221.153C151.397 249.209 99.9633 249.209 62.557 221.153C44.2241 207.403 22.4545 200.528 0.683777 200.528V198.445C22.8933 198.445 45.1039 205.459 63.807 219.487C100.473 246.987 150.888 246.987 187.554 219.487C224.96 191.431 276.393 191.431 313.799 219.487C350.465 246.987 400.881 246.987 437.546 219.487C456.254 205.455 478.469 198.442 500.684 198.445C522.893 198.445 545.104 205.459 563.807 219.487C600.472 246.987 650.888 246.987 687.554 219.487C724.96 191.431 776.393 191.431 813.799 219.487C850.465 246.987 900.881 246.987 937.546 219.487C956.254 205.455 978.469 198.442 1000.68 198.445V200.528C978.908 200.525 957.133 207.4 938.796 221.153C901.39 249.209 849.956 249.209 812.549 221.153C775.884 193.653 725.469 193.653 688.804 221.153C651.397 249.209 599.963 249.209 562.557 221.153C544.224 207.403 522.455 200.528 500.684 200.528Z" fill="white" fill-opacity="0.4"/>
<path fill-rule="evenodd" clip-rule="evenodd" d="M500.684 244.278C478.908 244.275 457.133 251.15 438.796 264.903C401.39 292.959 349.956 292.959 312.549 264.903C275.884 237.403 225.469 237.403 188.804 264.903C151.397 292.959 99.9633 292.959 62.557 264.903C44.2241 251.153 22.4545 244.278 0.683777 244.278V242.195C22.8933 242.195 45.1039 249.209 63.807 263.237C100.473 290.737 150.888 290.737 187.554 263.237C224.96 235.181 276.393 235.181 313.799 263.237C350.465 290.737 400.881 290.737 437.546 263.237C456.254 249.205 478.469 242.192 500.684 242.195C522.893 242.195 545.104 249.209 563.807 263.237C600.472 290.737 650.888 290.737 687.554 263.237C724.96 235.181 776.393 235.181 813.799 263.237C850.465 290.737 900.881 290.737 937.546 263.237C956.254 249.205 978.469 242.192 1000.68 242.195V244.278C978.908 244.275 957.133 251.15 938.796 264.903C901.39 292.959 849.956 292.959 812.549 264.903C775.884 237.403 725.469 237.403 688.804 264.903C651.397 292.959 599.963 292.959 562.557 264.903C544.224 251.153 522.455 244.278 500.684 244.278Z" fill="white" fill-opacity="0.4"/>
<path fill-rule="evenodd" clip-rule="evenodd" d="M500.684 260.945C478.908 260.942 457.133 267.817 438.796 281.57C401.39 309.625 349.956 309.625 312.549 281.57C275.884 254.07 225.469 254.07 188.804 281.57C151.397 309.625 99.9633 309.625 62.557 281.57C44.2241 267.82 22.4545 260.945 0.683777 260.945V258.862C22.8933 258.862 45.1039 265.875 63.807 279.903C100.473 307.403 150.888 307.403 187.554 279.903C224.96 251.848 276.393 251.848 313.799 279.903C350.465 307.403 400.881 307.403 437.546 279.903C456.254 265.872 478.469 258.859 500.684 258.862C522.893 258.862 545.104 265.875 563.807 279.903C600.472 307.403 650.888 307.403 687.554 279.903C724.96 251.848 776.393 251.848 813.799 279.903C850.465 307.403 900.881 307.403 937.546 279.903C956.254 265.872 978.469 258.859 1000.68 258.862V260.945C978.908 260.942 957.133 267.817 938.796 281.57C901.39 309.625 849.956 309.625 812.549 281.57C775.884 254.07 725.469 254.07 688.804 281.57C651.397 309.625 599.963 309.625 562.557 281.57C544.224 267.82 522.455 260.945 500.684 260.945Z" fill="white" fill-opacity="0.4"/>
<path fill-rule="evenodd" clip-rule="evenodd" d="M500.684 304.695C478.908 304.692 457.133 311.567 438.796 325.32C401.39 353.375 349.956 353.375 312.549 325.32C275.884 297.82 225.469 297.82 188.804 325.32C151.397 353.375 99.9633 353.375 62.557 325.32C44.2241 311.57 22.4545 304.695 0.683777 304.695V302.612C22.8933 302.612 45.1039 309.625 63.807 323.653C100.473 351.153 150.888 351.153 187.554 323.653C224.96 295.598 276.393 295.598 313.799 323.653C350.465 351.153 400.881 351.153 437.546 323.653C456.254 309.622 478.469 302.609 500.684 302.612C522.893 302.612 545.104 309.625 563.807 323.653C600.472 351.153 650.888 351.153 687.554 323.653C724.96 295.598 776.393 295.598 813.799 323.653C850.465 351.153 900.881 351.153 937.546 323.653C956.254 309.622 978.469 302.609 1000.68 302.612V304.695C978.908 304.692 957.133 311.567 938.796 325.32C901.39 353.375 849.956 353.375 812.549 325.32C775.884 297.82 725.469 297.82 688.804 325.32C651.397 353.375 599.963 353.375 562.557 325.32C544.224 311.57 522.455 304.695 500.684 304.695Z" fill="white" fill-opacity="0.4"/>
<path fill-rule="evenodd" clip-rule="evenodd" d="M500.684 321.362C478.908 321.359 457.133 328.234 438.796 341.987C401.39 370.042 349.956 370.042 312.549 341.987C275.884 314.487 225.469 314.487 188.804 341.987C151.397 370.042 99.9633 370.042 62.557 341.987C44.2241 328.237 22.4545 321.362 0.683777 321.362V319.278C22.8933 319.278 45.1039 326.292 63.807 340.32C100.473 367.82 150.888 367.82 187.554 340.32C224.96 312.265 276.393 312.265 313.799 340.32C350.465 367.82 400.881 367.82 437.546 340.32C456.254 326.289 478.469 319.275 500.684 319.278C522.893 319.278 545.104 326.292 563.807 340.32C600.472 367.82 650.888 367.82 687.554 340.32C724.96 312.265 776.393 312.265 813.799 340.32C850.465 367.82 900.881 367.82 937.546 340.32C956.254 326.289 978.469 319.275 1000.68 319.278V321.362C978.908 321.359 957.133 328.234 938.796 341.987C901.39 370.042 849.956 370.042 812.549 341.987C775.884 314.487 725.469 314.487 688.804 341.987C651.397 370.042 599.963 370.042 562.557 341.987C544.224 328.237 522.455 321.362 500.684 321.362Z" fill="white" fill-opacity="0.4"/>
<path fill-rule="evenodd" clip-rule="evenodd" d="M500.684 365.112C478.908 365.109 457.133 371.984 438.796 385.737C401.39 413.792 349.956 413.792 312.549 385.737C275.884 358.237 225.469 358.237 188.804 385.737C151.397 413.792 99.9633 413.792 62.557 385.737C44.2241 371.987 22.4545 365.112 0.683777 365.112V363.028C22.8933 363.028 45.1039 370.042 63.807 384.07C100.473 411.57 150.888 411.57 187.554 384.07C224.96 356.015 276.393 356.015 313.799 384.07C350.465 411.57 400.881 411.57 437.546 384.07C456.254 370.039 478.469 363.025 500.684 363.028C522.893 363.028 545.104 370.042 563.807 384.07C600.472 411.57 650.888 411.57 687.554 384.07C724.96 356.015 776.393 356.015 813.799 384.07C850.465 411.57 900.881 411.57 937.546 384.07C956.254 370.039 978.469 363.025 1000.68 363.028V365.112C978.908 365.109 957.133 371.984 938.796 385.737C901.39 413.792 849.956 413.792 812.549 385.737C775.884 358.237 725.469 358.237 688.804 385.737C651.397 413.792 599.963 413.792 562.557 385.737C544.224 371.987 522.455 365.112 500.684 365.112Z" fill="white" fill-opacity="0.4"/>
<path fill-rule="evenodd" clip-rule="evenodd" d="M500.684 381.778C478.908 381.775 457.133 388.65 438.796 402.403C401.39 430.458 349.956 430.458 312.549 402.403C275.884 374.903 225.469 374.903 188.804 402.403C151.397 430.458 99.9633 430.458 62.557 402.403C44.2241 388.653 22.4545 381.778 0.683777 381.778V379.695C22.8933 379.695 45.1039 386.709 63.807 400.737C100.473 428.237 150.888 428.237 187.554 400.737C224.96 372.681 276.393 372.681 313.799 400.737C350.465 428.237 400.881 428.237 437.546 400.737C456.254 386.705 478.469 379.692 500.684 379.695C522.893 379.695 545.104 386.709 563.807 400.737C600.472 428.237 650.888 428.237 687.554 400.737C724.96 372.681 776.393 372.681 813.799 400.737C850.465 428.237 900.881 428.237 937.546 400.737C956.254 386.705 978.469 379.692 1000.68 379.695V381.778C978.908 381.775 957.133 388.65 938.796 402.403C901.39 430.458 849.956 430.458 812.549 402.403C775.884 374.903 725.469 374.903 688.804 402.403C651.397 430.458 599.963 430.458 562.557 402.403C544.224 388.653 522.455 381.778 500.684 381.778Z" fill="white" fill-opacity="0.4"/>
</g>
<defs>
<clipPath id="clip0_1_728">
<rect width="1000" height="422.917" fill="white" transform="translate(0.683777 0.52832)"/>
</clipPath>
</defs>
</svg>
